<?xml version="1.0" encoding="UTF-8" standalone="no"?>
<!DOCTYPE svg PUBLIC "-//W3C//DTD SVG 1.1//EN"
 "http://www.w3.org/Graphics/SVG/1.1/DTD/svg11.dtd">
<!-- Generated by graphviz version 2.40.1 (20161225.0304)
 -->
<!-- Title: dependencies Pages: 1 -->
<svg width="4160pt" height="284pt"
 viewBox="0.00 0.00 4160.00 284.00" xmlns="http://www.w3.org/2000/svg" xmlns:xlink="http://www.w3.org/1999/xlink">
<g id="graph0" class="graph" transform="scale(1 1) rotate(0) translate(4 280)">
<title>dependencies</title>
<polygon fill="#ffffff" stroke="transparent" points="-4,4 -4,-280 4156,-280 4156,4 -4,4"/>
<text text-anchor="start" x="2055.0091" y="-42.4" font-family="sans-serif" font-weight="bold" font-size="14.00" fill="#000000">Legend</text>
<polygon fill="#ffffb3" stroke="transparent" points="1842,-10 1842,-30 1862,-30 1862,-10 1842,-10"/>
<text text-anchor="start" x="1865.629" y="-15.4" font-family="sans-serif" font-size="14.00" fill="#000000"> &#160;Declarations</text>
<polygon fill="#8dd3c7" stroke="transparent" points="1955,-10 1955,-30 1975,-30 1975,-10 1955,-10"/>
<text text-anchor="start" x="1978.7251" y="-15.4" font-family="sans-serif" font-size="14.00" fill="#000000"> &#160;Module</text>
<polygon fill="#80b1d3" stroke="transparent" points="2041,-10 2041,-30 2061,-30 2061,-10 2041,-10"/>
<text text-anchor="start" x="2064.7812" y="-15.4" font-family="sans-serif" font-size="14.00" fill="#000000"> &#160;Bootstrap</text>
<polygon fill="#fdb462" stroke="transparent" points="2138,-10 2138,-30 2158,-30 2158,-10 2138,-10"/>
<text text-anchor="start" x="2161.6732" y="-15.4" font-family="sans-serif" font-size="14.00" fill="#000000"> &#160;Providers</text>
<polygon fill="#fb8072" stroke="transparent" points="2234,-10 2234,-30 2254,-30 2254,-10 2234,-10"/>
<text text-anchor="start" x="2257.7258" y="-15.4" font-family="sans-serif" font-size="14.00" fill="#000000"> &#160;Exports</text>
<g id="clust1" class="cluster">
<title>cluster_ModuleBlueprintModule</title>
<polygon fill="none" stroke="#000000" stroke-dasharray="1,5" points="8,-70 8,-268 4144,-268 4144,-70 8,-70"/>
</g>
<g id="clust2" class="cluster">
<title>cluster_ModuleBlueprintModule_declarations</title>
<polygon fill="none" stroke="#000000" points="628,-78 628,-130 4136,-130 4136,-78 628,-78"/>
</g>
<g id="clust21" class="cluster">
<title>cluster_ModuleBlueprintModule_exports</title>
<polygon fill="none" stroke="#000000" points="1679,-208 1679,-260 1933,-260 1933,-208 1679,-208"/>
</g>
<g id="clust23" class="cluster">
<title>cluster_ModuleBlueprintModule_providers</title>
<polygon fill="none" stroke="#000000" points="16,-78 16,-130 620,-130 620,-78 16,-78"/>
</g>
<!-- ComponentBlueprintParentComponent -->
<g id="node1" class="node">
<title>ComponentBlueprintParentComponent</title>
<polygon fill="#ffffb3" stroke="#000000" points="4127.8116,-122 3892.1884,-122 3892.1884,-86 4127.8116,-86 4127.8116,-122"/>
<text text-anchor="middle" x="4010" y="-99.8" font-family="Times,serif" font-size="14.00" fill="#000000">ComponentBlueprintParentComponent</text>
</g>
<!-- ModuleBlueprintModule -->
<g id="node18" class="node">
<title>ModuleBlueprintModule</title>
<polygon fill="#8dd3c7" stroke="#000000" points="1883.9832,-187 1880.9832,-191 1859.9832,-191 1856.9832,-187 1728.0168,-187 1728.0168,-151 1883.9832,-151 1883.9832,-187"/>
<text text-anchor="middle" x="1806" y="-164.8" font-family="Times,serif" font-size="14.00" fill="#000000">ModuleBlueprintModule</text>
</g>
<!-- ComponentBlueprintParentComponent&#45;&gt;ModuleBlueprintModule -->
<g id="edge1" class="edge">
<title>ComponentBlueprintParentComponent&#45;&gt;ModuleBlueprintModule</title>
<path fill="none" stroke="#000000" d="M4010,-122.1532C4010,-145.7566 4010,-184 4010,-184 4010,-184 1894.1175,-184 1894.1175,-184"/>
<polygon fill="#000000" stroke="#000000" points="1894.1176,-180.5001 1884.1175,-184 1894.1175,-187.5001 1894.1176,-180.5001"/>
</g>
<!-- ComponentCanvasComponent -->
<g id="node2" class="node">
<title>ComponentCanvasComponent</title>
<polygon fill="#ffffb3" stroke="#000000" points="3873.8752,-122 3686.1248,-122 3686.1248,-86 3873.8752,-86 3873.8752,-122"/>
<text text-anchor="middle" x="3780" y="-99.8" font-family="Times,serif" font-size="14.00" fill="#000000">ComponentCanvasComponent</text>
</g>
<!-- ComponentCanvasComponent&#45;&gt;ModuleBlueprintModule -->
<g id="edge2" class="edge">
<title>ComponentCanvasComponent&#45;&gt;ModuleBlueprintModule</title>
<path fill="none" stroke="#000000" d="M3780,-122.0109C3780,-144.4852 3780,-180 3780,-180 3780,-180 1893.9911,-180 1893.9911,-180"/>
<polygon fill="#000000" stroke="#000000" points="1893.9912,-176.5001 1883.9911,-180 1893.9911,-183.5001 1893.9912,-176.5001"/>
</g>
<!-- ComponentElementKeyPanelComponent -->
<g id="node3" class="node">
<title>ComponentElementKeyPanelComponent</title>
<polygon fill="#ffffb3" stroke="#000000" points="3667.7421,-122 3420.2579,-122 3420.2579,-86 3667.7421,-86 3667.7421,-122"/>
<text text-anchor="middle" x="3544" y="-99.8" font-family="Times,serif" font-size="14.00" fill="#000000">ComponentElementKeyPanelComponent</text>
</g>
<!-- ComponentElementKeyPanelComponent&#45;&gt;ModuleBlueprintModule -->
<g id="edge3" class="edge">
<title>ComponentElementKeyPanelComponent&#45;&gt;ModuleBlueprintModule</title>
<path fill="none" stroke="#000000" d="M3544,-122.0449C3544,-143.6623 3544,-177 3544,-177 3544,-177 1894.0547,-177 1894.0547,-177"/>
<polygon fill="#000000" stroke="#000000" points="1894.0547,-173.5001 1884.0547,-177 1894.0546,-180.5001 1894.0547,-173.5001"/>
</g>
<!-- ComponentLoginDialogComponent -->
<g id="node4" class="node">
<title>ComponentLoginDialogComponent</title>
<polygon fill="#ffffb3" stroke="#000000" points="3402.2105,-122 3183.7895,-122 3183.7895,-86 3402.2105,-86 3402.2105,-122"/>
<text text-anchor="middle" x="3293" y="-99.8" font-family="Times,serif" font-size="14.00" fill="#000000">ComponentLoginDialogComponent</text>
</g>
<!-- ComponentLoginDialogComponent&#45;&gt;ModuleBlueprintModule -->
<g id="edge4" class="edge">
<title>ComponentLoginDialogComponent&#45;&gt;ModuleBlueprintModule</title>
<path fill="none" stroke="#000000" d="M3293,-122.1289C3293,-142.5724 3293,-173 3293,-173 3293,-173 1894.1143,-173 1894.1143,-173"/>
<polygon fill="#000000" stroke="#000000" points="1894.1143,-169.5001 1884.1143,-173 1894.1143,-176.5001 1894.1143,-169.5001"/>
</g>
<!-- ComponentMenuComponent -->
<g id="node5" class="node">
<title>ComponentMenuComponent</title>
<polygon fill="#ffffb3" stroke="#000000" points="3165.8243,-122 2986.1757,-122 2986.1757,-86 3165.8243,-86 3165.8243,-122"/>
<text text-anchor="middle" x="3076" y="-99.8" font-family="Times,serif" font-size="14.00" fill="#000000">ComponentMenuComponent</text>
</g>
<!-- ComponentMenuComponent&#45;&gt;ModuleBlueprintModule -->
<g id="edge5" class="edge">
<title>ComponentMenuComponent&#45;&gt;ModuleBlueprintModule</title>
<path fill="none" stroke="#000000" d="M3076,-122.1061C3076,-141.3391 3076,-169 3076,-169 3076,-169 1894.0085,-169 1894.0085,-169"/>
<polygon fill="#000000" stroke="#000000" points="1894.0085,-165.5001 1884.0085,-169 1894.0084,-172.5001 1894.0085,-165.5001"/>
</g>
<!-- ComponentSaveDialogComponent -->
<g id="node6" class="node">
<title>ComponentSaveDialogComponent</title>
<polygon fill="#ffffb3" stroke="#000000" points="2967.979,-122 2756.021,-122 2756.021,-86 2967.979,-86 2967.979,-122"/>
<text text-anchor="middle" x="2862" y="-99.8" font-family="Times,serif" font-size="14.00" fill="#000000">ComponentSaveDialogComponent</text>
</g>
<!-- ComponentSaveDialogComponent&#45;&gt;ModuleBlueprintModule -->
<g id="edge6" class="edge">
<title>ComponentSaveDialogComponent&#45;&gt;ModuleBlueprintModule</title>
<path fill="none" stroke="#000000" d="M2862,-122.2667C2862,-140.5552 2862,-166 2862,-166 2862,-166 1894.079,-166 1894.079,-166"/>
<polygon fill="#000000" stroke="#000000" points="1894.0791,-162.5001 1884.079,-166 1894.079,-169.5001 1894.0791,-162.5001"/>
</g>
<!-- ComponentSideBuildToolComponent -->
<g id="node7" class="node">
<title>ComponentSideBuildToolComponent</title>
<polygon fill="#ffffb3" stroke="#000000" points="2737.6136,-122 2508.3864,-122 2508.3864,-86 2737.6136,-86 2737.6136,-122"/>
<text text-anchor="middle" x="2623" y="-99.8" font-family="Times,serif" font-size="14.00" fill="#000000">ComponentSideBuildToolComponent</text>
</g>
<!-- ComponentSideBuildToolComponent&#45;&gt;ModuleBlueprintModule -->
<g id="edge7" class="edge">
<title>ComponentSideBuildToolComponent&#45;&gt;ModuleBlueprintModule</title>
<path fill="none" stroke="#000000" d="M2623,-122.0336C2623,-139.0597 2623,-162 2623,-162 2623,-162 1894.3374,-162 1894.3374,-162"/>
<polygon fill="#000000" stroke="#000000" points="1894.3374,-158.5001 1884.3374,-162 1894.3374,-165.5001 1894.3374,-158.5001"/>
</g>
<!-- ComponentSideSelectionToolComponent -->
<g id="node8" class="node">
<title>ComponentSideSelectionToolComponent</title>
<polygon fill="#ffffb3" stroke="#000000" points="2490.094,-122 2239.906,-122 2239.906,-86 2490.094,-86 2490.094,-122"/>
<text text-anchor="middle" x="2365" y="-99.8" font-family="Times,serif" font-size="14.00" fill="#000000">ComponentSideSelectionToolComponent</text>
</g>
<!-- ComponentSideSelectionToolComponent&#45;&gt;ModuleBlueprintModule -->
<g id="edge8" class="edge">
<title>ComponentSideSelectionToolComponent&#45;&gt;ModuleBlueprintModule</title>
<path fill="none" stroke="#000000" d="M2365,-122.0091C2365,-138.0494 2365,-159 2365,-159 2365,-159 1894.0206,-159 1894.0206,-159"/>
<polygon fill="#000000" stroke="#000000" points="1894.0207,-155.5001 1884.0206,-159 1894.0206,-162.5001 1894.0207,-155.5001"/>
</g>
<!-- ComponentSidepanelComponent -->
<g id="node9" class="node">
<title>ComponentSidepanelComponent</title>
<polygon fill="#ffffb3" stroke="#000000" points="2221.8724,-122 2020.1276,-122 2020.1276,-86 2221.8724,-86 2221.8724,-122"/>
<text text-anchor="middle" x="2121" y="-99.8" font-family="Times,serif" font-size="14.00" fill="#000000">ComponentSidepanelComponent</text>
</g>
<!-- ComponentSidepanelComponent&#45;&gt;ModuleBlueprintModule -->
<g id="edge9" class="edge">
<title>ComponentSidepanelComponent&#45;&gt;ModuleBlueprintModule</title>
<path fill="none" stroke="#000000" d="M2121,-122.1243C2121,-136.7832 2121,-155 2121,-155 2121,-155 1894.2699,-155 1894.2699,-155"/>
<polygon fill="#000000" stroke="#000000" points="1894.2699,-151.5001 1884.2699,-155 1894.2699,-158.5001 1894.2699,-151.5001"/>
</g>
<!-- ComponentTileInfoComponent -->
<g id="node10" class="node">
<title>ComponentTileInfoComponent</title>
<polygon fill="#ffffb3" stroke="#000000" points="2002.035,-122 1809.965,-122 1809.965,-86 2002.035,-86 2002.035,-122"/>
<text text-anchor="middle" x="1906" y="-99.8" font-family="Times,serif" font-size="14.00" fill="#000000">ComponentTileInfoComponent</text>
</g>
<!-- ComponentTileInfoComponent&#45;&gt;ModuleBlueprintModule -->
<g id="edge10" class="edge">
<title>ComponentTileInfoComponent&#45;&gt;ModuleBlueprintModule</title>
<path fill="none" stroke="#000000" d="M1846.8622,-122.1061C1846.8622,-122.1061 1846.8622,-140.991 1846.8622,-140.991"/>
<polygon fill="#000000" stroke="#000000" points="1843.3623,-140.9909 1846.8622,-150.991 1850.3623,-140.991 1843.3623,-140.9909"/>
</g>
<!-- DialogShareUrlComponent -->
<g id="node11" class="node">
<title>DialogShareUrlComponent</title>
<polygon fill="#ffffb3" stroke="#000000" points="1791.965,-122 1622.035,-122 1622.035,-86 1791.965,-86 1791.965,-122"/>
<text text-anchor="middle" x="1707" y="-99.8" font-family="Times,serif" font-size="14.00" fill="#000000">DialogShareUrlComponent</text>
</g>
<!-- DialogShareUrlComponent&#45;&gt;ModuleBlueprintModule -->
<g id="edge11" class="edge">
<title>DialogShareUrlComponent&#45;&gt;ModuleBlueprintModule</title>
<path fill="none" stroke="#000000" d="M1759.9955,-122.1061C1759.9955,-122.1061 1759.9955,-140.991 1759.9955,-140.991"/>
<polygon fill="#000000" stroke="#000000" points="1756.4955,-140.9909 1759.9955,-150.991 1763.4955,-140.991 1756.4955,-140.9909"/>
</g>
<!-- DragAndDropDirective -->
<g id="node12" class="node">
<title>DragAndDropDirective</title>
<polygon fill="#ffffb3" stroke="#000000" points="1604.4384,-122 1455.5616,-122 1455.5616,-86 1604.4384,-86 1604.4384,-122"/>
<text text-anchor="middle" x="1530" y="-99.8" font-family="Times,serif" font-size="14.00" fill="#000000">DragAndDropDirective</text>
</g>
<!-- DragAndDropDirective&#45;&gt;ModuleBlueprintModule -->
<g id="edge12" class="edge">
<title>DragAndDropDirective&#45;&gt;ModuleBlueprintModule</title>
<path fill="none" stroke="#000000" d="M1530,-122.1243C1530,-136.7832 1530,-155 1530,-155 1530,-155 1718.0162,-155 1718.0162,-155"/>
<polygon fill="#000000" stroke="#000000" points="1718.0162,-158.5001 1728.0162,-155 1718.0161,-151.5001 1718.0162,-158.5001"/>
</g>
<!-- KeyboardDirective -->
<g id="node13" class="node">
<title>KeyboardDirective</title>
<polygon fill="#ffffb3" stroke="#000000" points="1437.7795,-122 1314.2205,-122 1314.2205,-86 1437.7795,-86 1437.7795,-122"/>
<text text-anchor="middle" x="1376" y="-99.8" font-family="Times,serif" font-size="14.00" fill="#000000">KeyboardDirective</text>
</g>
<!-- KeyboardDirective&#45;&gt;ModuleBlueprintModule -->
<g id="edge13" class="edge">
<title>KeyboardDirective&#45;&gt;ModuleBlueprintModule</title>
<path fill="none" stroke="#000000" d="M1376,-122.0091C1376,-138.0494 1376,-159 1376,-159 1376,-159 1717.6314,-159 1717.6314,-159"/>
<polygon fill="#000000" stroke="#000000" points="1717.6314,-162.5001 1727.6314,-159 1717.6313,-155.5001 1717.6314,-162.5001"/>
</g>
<!-- LoginFormComponent -->
<g id="node14" class="node">
<title>LoginFormComponent</title>
<polygon fill="#ffffb3" stroke="#000000" points="1296.6094,-122 1151.3906,-122 1151.3906,-86 1296.6094,-86 1296.6094,-122"/>
<text text-anchor="middle" x="1224" y="-99.8" font-family="Times,serif" font-size="14.00" fill="#000000">LoginFormComponent</text>
</g>
<!-- LoginFormComponent&#45;&gt;ModuleBlueprintModule -->
<g id="edge14" class="edge">
<title>LoginFormComponent&#45;&gt;ModuleBlueprintModule</title>
<path fill="none" stroke="#000000" d="M1224,-122.0336C1224,-139.0597 1224,-162 1224,-162 1224,-162 1717.8111,-162 1717.8111,-162"/>
<polygon fill="#000000" stroke="#000000" points="1717.8111,-165.5001 1727.8111,-162 1717.811,-158.5001 1717.8111,-165.5001"/>
</g>
<!-- MouseWheelDirective -->
<g id="node15" class="node">
<title>MouseWheelDirective</title>
<polygon fill="#ffffb3" stroke="#000000" points="1133.2213,-122 990.7787,-122 990.7787,-86 1133.2213,-86 1133.2213,-122"/>
<text text-anchor="middle" x="1062" y="-99.8" font-family="Times,serif" font-size="14.00" fill="#000000">MouseWheelDirective</text>
</g>
<!-- MouseWheelDirective&#45;&gt;ModuleBlueprintModule -->
<g id="edge15" class="edge">
<title>MouseWheelDirective&#45;&gt;ModuleBlueprintModule</title>
<path fill="none" stroke="#000000" d="M1062,-122.2667C1062,-140.5552 1062,-166 1062,-166 1062,-166 1717.7852,-166 1717.7852,-166"/>
<polygon fill="#000000" stroke="#000000" points="1717.7852,-169.5001 1727.7852,-166 1717.7851,-162.5001 1717.7852,-169.5001"/>
</g>
<!-- RegisterFormComponent -->
<g id="node16" class="node">
<title>RegisterFormComponent</title>
<polygon fill="#ffffb3" stroke="#000000" points="972.3187,-122 813.6813,-122 813.6813,-86 972.3187,-86 972.3187,-122"/>
<text text-anchor="middle" x="893" y="-99.8" font-family="Times,serif" font-size="14.00" fill="#000000">RegisterFormComponent</text>
</g>
<!-- RegisterFormComponent&#45;&gt;ModuleBlueprintModule -->
<g id="edge16" class="edge">
<title>RegisterFormComponent&#45;&gt;ModuleBlueprintModule</title>
<path fill="none" stroke="#000000" d="M893,-122.1061C893,-141.3391 893,-169 893,-169 893,-169 1717.7634,-169 1717.7634,-169"/>
<polygon fill="#000000" stroke="#000000" points="1717.7635,-172.5001 1727.7634,-169 1717.7634,-165.5001 1717.7635,-172.5001"/>
</g>
<!-- StringSanitationDirective -->
<g id="node17" class="node">
<title>StringSanitationDirective</title>
<polygon fill="#ffffb3" stroke="#000000" points="795.5814,-122 636.4186,-122 636.4186,-86 795.5814,-86 795.5814,-122"/>
<text text-anchor="middle" x="716" y="-99.8" font-family="Times,serif" font-size="14.00" fill="#000000">StringSanitationDirective</text>
</g>
<!-- StringSanitationDirective&#45;&gt;ModuleBlueprintModule -->
<g id="edge17" class="edge">
<title>StringSanitationDirective&#45;&gt;ModuleBlueprintModule</title>
<path fill="none" stroke="#000000" d="M716,-122.1289C716,-142.5724 716,-173 716,-173 716,-173 1717.6099,-173 1717.6099,-173"/>
<polygon fill="#000000" stroke="#000000" points="1717.6099,-176.5001 1727.6099,-173 1717.6099,-169.5001 1717.6099,-176.5001"/>
</g>
<!-- ComponentBlueprintParentComponent  -->
<g id="node19" class="node">
<title>ComponentBlueprintParentComponent </title>
<polygon fill="#fb8072" stroke="#000000" points="1925.3115,-252 1686.6885,-252 1686.6885,-216 1925.3115,-216 1925.3115,-252"/>
<text text-anchor="middle" x="1806" y="-229.8" font-family="Times,serif" font-size="14.00" fill="#000000">ComponentBlueprintParentComponent </text>
</g>
<!-- ModuleBlueprintModule&#45;&gt;ComponentBlueprintParentComponent  -->
<g id="edge18" class="edge">
<title>ModuleBlueprintModule&#45;&gt;ComponentBlueprintParentComponent </title>
<path fill="none" stroke="#000000" stroke-dasharray="5,2" d="M1806,-187.1061C1806,-187.1061 1806,-205.991 1806,-205.991"/>
<polygon fill="#000000" stroke="#000000" points="1802.5001,-205.9909 1806,-215.991 1809.5001,-205.991 1802.5001,-205.9909"/>
</g>
<!-- AuthenticationService -->
<g id="node20" class="node">
<title>AuthenticationService</title>
<ellipse fill="#fdb462" stroke="#000000" cx="515" cy="-104" rx="97.2683" ry="18"/>
<text text-anchor="middle" x="515" y="-99.8" font-family="Times,serif" font-size="14.00" fill="#000000">AuthenticationService</text>
</g>
<!-- AuthenticationService&#45;&gt;ModuleBlueprintModule -->
<g id="edge19" class="edge">
<title>AuthenticationService&#45;&gt;ModuleBlueprintModule</title>
<path fill="none" stroke="#000000" d="M515,-122.0449C515,-143.6623 515,-177 515,-177 515,-177 1717.6682,-177 1717.6682,-177"/>
<polygon fill="#000000" stroke="#000000" points="1717.6682,-180.5001 1727.6682,-177 1717.6681,-173.5001 1717.6682,-180.5001"/>
</g>
<!-- BlueprintService -->
<g id="node21" class="node">
<title>BlueprintService</title>
<ellipse fill="#fdb462" stroke="#000000" cx="323" cy="-104" rx="76.4401" ry="18"/>
<text text-anchor="middle" x="323" y="-99.8" font-family="Times,serif" font-size="14.00" fill="#000000">BlueprintService</text>
</g>
<!-- BlueprintService&#45;&gt;ModuleBlueprintModule -->
<g id="edge20" class="edge">
<title>BlueprintService&#45;&gt;ModuleBlueprintModule</title>
<path fill="none" stroke="#000000" d="M323,-122.0109C323,-144.4852 323,-180 323,-180 323,-180 1717.8358,-180 1717.8358,-180"/>
<polygon fill="#000000" stroke="#000000" points="1717.8358,-183.5001 1727.8358,-180 1717.8357,-176.5001 1717.8358,-183.5001"/>
</g>
<!-- CheckDuplicateService -->
<g id="node22" class="node">
<title>CheckDuplicateService</title>
<ellipse fill="#fdb462" stroke="#000000" cx="126" cy="-104" rx="102.4043" ry="18"/>
<text text-anchor="middle" x="126" y="-99.8" font-family="Times,serif" font-size="14.00" fill="#000000">CheckDuplicateService</text>
</g>
<!-- CheckDuplicateService&#45;&gt;ModuleBlueprintModule -->
<g id="edge21" class="edge">
<title>CheckDuplicateService&#45;&gt;ModuleBlueprintModule</title>
<path fill="none" stroke="#000000" d="M126,-122.1532C126,-145.7566 126,-184 126,-184 126,-184 1717.7823,-184 1717.7823,-184"/>
<polygon fill="#000000" stroke="#000000" points="1717.7824,-187.5001 1727.7823,-184 1717.7823,-180.5001 1717.7824,-187.5001"/>
</g>
</g>
</svg>
