<svg xmlns="http://www.w3.org/2000/svg" viewBox="0 0 262.94 262.94"><title>Favicon_blueprint_oxygen</title><g id="a7679dfa-437b-4b5d-b2af-b62d8222c019" data-name="Calque 2"><rect x="6.09" y="6.09" width="251.81" height="251.81" rx="125.91" fill="#0d79a7"/><g opacity="0.5"><line x1="6.56" y1="131.87" x2="257.9" y2="131.87" fill="none" stroke="#fff" stroke-miterlimit="10" stroke-width="0.25"/><line x1="18.19" y1="184.94" x2="246.28" y2="184.94" fill="none" stroke="#fff" stroke-miterlimit="10" stroke-width="0.25"/><line x1="64.66" y1="238" x2="199.8" y2="238" fill="none" stroke="#fff" stroke-miterlimit="10" stroke-width="0.25"/><line x1="64.66" y1="25.74" x2="199.8" y2="25.74" fill="none" stroke="#fff" stroke-miterlimit="10" stroke-width="0.25"/><line x1="18.19" y1="78.81" x2="246.28" y2="78.81" fill="none" stroke="#fff" stroke-miterlimit="10" stroke-width="0.25"/></g><g opacity="0.5"><line x1="132.23" y1="6.09" x2="132.23" y2="257.65" fill="none" stroke="#fff" stroke-miterlimit="10" stroke-width="0.25"/><line x1="79.17" y1="17.98" x2="79.17" y2="245.76" fill="none" stroke="#fff" stroke-miterlimit="10" stroke-width="0.25"/><line x1="26.1" y1="64.05" x2="26.1" y2="199.69" fill="none" stroke="#fff" stroke-miterlimit="10" stroke-width="0.25"/><line x1="238.36" y1="64.05" x2="238.36" y2="199.69" fill="none" stroke="#fff" stroke-miterlimit="10" stroke-width="0.25"/><line x1="185.3" y1="17.98" x2="185.3" y2="245.76" fill="none" stroke="#fff" stroke-miterlimit="10" stroke-width="0.25"/></g><rect x="77.4" y="23.97" width="3.54" height="3.54" rx="1.77" fill="#fff" opacity="0.5"/><rect x="130.46" y="23.97" width="3.54" height="3.54" rx="1.77" fill="#fff" opacity="0.5"/><rect x="183.53" y="23.97" width="3.54" height="3.54" rx="1.77" fill="#fff" opacity="0.5"/><rect x="210.06" y="23.97" width="3.54" height="3.54" rx="1.77" fill="#fff" opacity="0.5"/><rect x="50.86" y="23.97" width="3.54" height="3.54" rx="1.77" fill="#fff" opacity="0.5"/><rect x="103.93" y="50.5" width="3.54" height="3.54" rx="1.77" fill="#fff" opacity="0.5"/><rect x="130.46" y="50.5" width="3.54" height="3.54" rx="1.77" fill="#fff" opacity="0.5"/><rect x="156.99" y="50.5" width="3.54" height="3.54" rx="1.77" fill="#fff" opacity="0.5"/><rect x="236.59" y="50.5" width="3.54" height="3.54" rx="1.77" fill="#fff" opacity="0.5"/><rect x="24.33" y="50.5" width="3.54" height="3.54" rx="1.77" fill="#fff" opacity="0.5"/><rect x="24.33" y="77.03" width="3.54" height="3.54" rx="1.77" fill="#fff" opacity="0.5"/><rect x="24.33" y="130.1" width="3.54" height="3.54" rx="1.77" fill="#fff" opacity="0.5"/><rect x="24.33" y="183.16" width="3.54" height="3.54" rx="1.77" fill="#fff" opacity="0.5"/><rect x="77.4" y="77.03" width="3.54" height="3.54" rx="1.77" fill="#fff" opacity="0.5"/><rect x="103.93" y="77.03" width="3.54" height="3.54" rx="1.77" fill="#fff" opacity="0.5"/><rect x="130.46" y="77.03" width="3.54" height="3.54" rx="1.77" fill="#fff" opacity="0.5"/><rect x="156.99" y="77.03" width="3.54" height="3.54" rx="1.77" fill="#fff" opacity="0.5"/><rect x="183.53" y="77.03" width="3.54" height="3.54" rx="1.77" fill="#fff" opacity="0.5"/><rect x="236.59" y="77.03" width="3.54" height="3.54" rx="1.77" fill="#fff" opacity="0.5"/><rect x="77.4" y="130.1" width="3.54" height="3.54" rx="1.77" fill="#fff" opacity="0.5"/><rect x="103.93" y="130.1" width="3.54" height="3.54" rx="1.77" fill="#fff" opacity="0.5"/><rect x="130.46" y="130.1" width="3.54" height="3.54" rx="1.77" fill="#fff" opacity="0.5"/><rect x="156.99" y="130.1" width="3.54" height="3.54" rx="1.77" fill="#fff" opacity="0.5"/><rect x="183.53" y="130.1" width="3.54" height="3.54" rx="1.77" fill="#fff" opacity="0.5"/><rect x="236.59" y="130.1" width="3.54" height="3.54" rx="1.77" fill="#fff" opacity="0.5"/><rect x="77.4" y="183.16" width="3.54" height="3.54" rx="1.77" fill="#fff" opacity="0.5"/><rect x="103.93" y="183.16" width="3.54" height="3.54" rx="1.77" fill="#fff" opacity="0.5"/><rect x="130.46" y="183.16" width="3.54" height="3.54" rx="1.77" fill="#fff" opacity="0.5"/><rect x="156.99" y="183.16" width="3.54" height="3.54" rx="1.77" fill="#fff" opacity="0.5"/><rect x="183.53" y="183.16" width="3.54" height="3.54" rx="1.77" fill="#fff" opacity="0.5"/><rect x="236.59" y="183.16" width="3.54" height="3.54" rx="1.77" fill="#fff" opacity="0.5"/><rect x="103.93" y="209.7" width="3.54" height="3.54" rx="1.77" fill="#fff" opacity="0.5"/><rect x="130.46" y="209.7" width="3.54" height="3.54" rx="1.77" fill="#fff" opacity="0.5"/><rect x="156.99" y="209.7" width="3.54" height="3.54" rx="1.77" fill="#fff" opacity="0.5"/><rect x="77.4" y="236.23" width="3.54" height="3.54" rx="1.77" fill="#fff" opacity="0.5"/><rect x="130.46" y="236.23" width="3.54" height="3.54" rx="1.77" fill="#fff" opacity="0.5"/><rect x="183.53" y="236.23" width="3.54" height="3.54" rx="1.77" fill="#fff" opacity="0.5"/><rect x="210.06" y="236.23" width="3.54" height="3.54" rx="1.77" fill="#fff" opacity="0.5"/><rect x="50.86" y="236.23" width="3.54" height="3.54" rx="1.77" fill="#fff" opacity="0.5"/></g><g id="b98b6670-d2e4-4731-aaee-8b10fe305b33" data-name="Calque 1"><path d="M118,130.43V76.37a7.84,7.84,0,0,1,7.85-7.84h12.4a7.82,7.82,0,0,1,7.8,7.63v31.6l50.6-41.14H183.47V61.8c-.08-17.73-12.65-30.15-30.46-30.38-13.9-.16-27.72-.08-41.63,0C93.11,31.58,81.08,43.76,81,62.19q-.12,31.86-.08,63.8,0,17.31,0,34.64Z" fill="#fff"/><path d="M146.05,187.86a7.84,7.84,0,0,1-7.84,7.84h-12.4A7.75,7.75,0,0,1,118.4,190V156.11L67.79,197.25H81c0,1.79,0,3.58,0,5.36.07,17.65,12.26,29.83,29.83,30,14.06.08,28.11.08,42.25,0,17.8-.16,30.3-12.49,30.38-30.3q.09-49.56,0-99.11l-37.42,30.64Z" fill="#fff"/></g></svg>