<?xml version="1.0" encoding="UTF-8" standalone="no"?>
<svg
   xmlns:dc="http://purl.org/dc/elements/1.1/"
   xmlns:cc="http://creativecommons.org/ns#"
   xmlns:rdf="http://www.w3.org/1999/02/22-rdf-syntax-ns#"
   xmlns:svg="http://www.w3.org/2000/svg"
   xmlns="http://www.w3.org/2000/svg"
   xmlns:sodipodi="http://sodipodi.sourceforge.net/DTD/sodipodi-0.dtd"
   xmlns:inkscape="http://www.inkscape.org/namespaces/inkscape"
   viewBox="0 0 262.94 262.94"
   version="1.1"
   id="svg114"
   sodipodi:docname="Favicon_blueprint_oxygen_int.svg"
   inkscape:export-filename="E:\blueprintnotincluded\blueprintnotincluded\src\assets\images\ui\manual\logo.png"
   inkscape:export-xdpi="96"
   inkscape:export-ydpi="96"
   inkscape:version="0.92.3 (2405546, 2018-03-11)">
  <metadata
     id="metadata120">
    <rdf:RDF>
      <cc:Work
         rdf:about="">
        <dc:format>image/svg+xml</dc:format>
        <dc:type
           rdf:resource="http://purl.org/dc/dcmitype/StillImage" />
        <dc:title>Favicon_blueprint_oxygen</dc:title>
      </cc:Work>
    </rdf:RDF>
  </metadata>
  <defs
     id="defs118" />
  <sodipodi:namedview
     pagecolor="#ffffff"
     bordercolor="#666666"
     borderopacity="1"
     objecttolerance="10"
     gridtolerance="10"
     guidetolerance="10"
     inkscape:pageopacity="0"
     inkscape:pageshadow="2"
     inkscape:window-width="1920"
     inkscape:window-height="986"
     id="namedview116"
     showgrid="false"
     inkscape:zoom="5.0772708"
     inkscape:cx="86.212417"
     inkscape:cy="162.71724"
     inkscape:window-x="-11"
     inkscape:window-y="-11"
     inkscape:window-maximized="1"
     inkscape:current-layer="b98b6670-d2e4-4731-aaee-8b10fe305b33" />
  <title
     id="title2">Favicon_blueprint_oxygen</title>
  <g
     id="a7679dfa-437b-4b5d-b2af-b62d8222c019"
     data-name="Calque 2">
    <rect
       x="6.09"
       y="6.09"
       width="251.81"
       height="251.81"
       rx="125.91"
       fill="#0d79a7"
       id="rect4" />
    <g
       opacity="0.5"
       id="g16">
      <line
         x1="6.56"
         y1="131.87"
         x2="257.9"
         y2="131.87"
         fill="none"
         stroke="#fff"
         stroke-miterlimit="10"
         stroke-width="0.25"
         id="line6" />
      <line
         x1="18.19"
         y1="184.94"
         x2="246.28"
         y2="184.94"
         fill="none"
         stroke="#fff"
         stroke-miterlimit="10"
         stroke-width="0.25"
         id="line8" />
      <line
         x1="64.66"
         y1="238"
         x2="199.8"
         y2="238"
         fill="none"
         stroke="#fff"
         stroke-miterlimit="10"
         stroke-width="0.25"
         id="line10" />
      <line
         x1="64.66"
         y1="25.74"
         x2="199.8"
         y2="25.74"
         fill="none"
         stroke="#fff"
         stroke-miterlimit="10"
         stroke-width="0.25"
         id="line12" />
      <line
         x1="18.19"
         y1="78.81"
         x2="246.28"
         y2="78.81"
         fill="none"
         stroke="#fff"
         stroke-miterlimit="10"
         stroke-width="0.25"
         id="line14" />
    </g>
    <g
       opacity="0.5"
       id="g28">
      <line
         x1="132.23"
         y1="6.09"
         x2="132.23"
         y2="257.65"
         fill="none"
         stroke="#fff"
         stroke-miterlimit="10"
         stroke-width="0.25"
         id="line18" />
      <line
         x1="79.17"
         y1="17.98"
         x2="79.17"
         y2="245.76"
         fill="none"
         stroke="#fff"
         stroke-miterlimit="10"
         stroke-width="0.25"
         id="line20" />
      <line
         x1="26.1"
         y1="64.05"
         x2="26.1"
         y2="199.69"
         fill="none"
         stroke="#fff"
         stroke-miterlimit="10"
         stroke-width="0.25"
         id="line22" />
      <line
         x1="238.36"
         y1="64.05"
         x2="238.36"
         y2="199.69"
         fill="none"
         stroke="#fff"
         stroke-miterlimit="10"
         stroke-width="0.25"
         id="line24" />
      <line
         x1="185.3"
         y1="17.98"
         x2="185.3"
         y2="245.76"
         fill="none"
         stroke="#fff"
         stroke-miterlimit="10"
         stroke-width="0.25"
         id="line26" />
    </g>
    <rect
       x="77.4"
       y="23.97"
       width="3.54"
       height="3.54"
       rx="1.77"
       fill="#fff"
       opacity="0.5"
       id="rect30" />
    <rect
       x="130.46"
       y="23.97"
       width="3.54"
       height="3.54"
       rx="1.77"
       fill="#fff"
       opacity="0.5"
       id="rect32" />
    <rect
       x="183.53"
       y="23.97"
       width="3.54"
       height="3.54"
       rx="1.77"
       fill="#fff"
       opacity="0.5"
       id="rect34" />
    <rect
       x="210.06"
       y="23.97"
       width="3.54"
       height="3.54"
       rx="1.77"
       fill="#fff"
       opacity="0.5"
       id="rect36" />
    <rect
       x="50.86"
       y="23.97"
       width="3.54"
       height="3.54"
       rx="1.77"
       fill="#fff"
       opacity="0.5"
       id="rect38" />
    <rect
       x="103.93"
       y="50.5"
       width="3.54"
       height="3.54"
       rx="1.77"
       fill="#fff"
       opacity="0.5"
       id="rect40" />
    <rect
       x="130.46"
       y="50.5"
       width="3.54"
       height="3.54"
       rx="1.77"
       fill="#fff"
       opacity="0.5"
       id="rect42" />
    <rect
       x="156.99"
       y="50.5"
       width="3.54"
       height="3.54"
       rx="1.77"
       fill="#fff"
       opacity="0.5"
       id="rect44" />
    <rect
       x="236.59"
       y="50.5"
       width="3.54"
       height="3.54"
       rx="1.77"
       fill="#fff"
       opacity="0.5"
       id="rect46" />
    <rect
       x="24.33"
       y="50.5"
       width="3.54"
       height="3.54"
       rx="1.77"
       fill="#fff"
       opacity="0.5"
       id="rect48" />
    <rect
       x="24.33"
       y="77.03"
       width="3.54"
       height="3.54"
       rx="1.77"
       fill="#fff"
       opacity="0.5"
       id="rect50" />
    <rect
       x="24.33"
       y="130.1"
       width="3.54"
       height="3.54"
       rx="1.77"
       fill="#fff"
       opacity="0.5"
       id="rect52" />
    <rect
       x="24.33"
       y="183.16"
       width="3.54"
       height="3.54"
       rx="1.77"
       fill="#fff"
       opacity="0.5"
       id="rect54" />
    <rect
       x="77.4"
       y="77.03"
       width="3.54"
       height="3.54"
       rx="1.77"
       fill="#fff"
       opacity="0.5"
       id="rect56" />
    <rect
       x="103.93"
       y="77.03"
       width="3.54"
       height="3.54"
       rx="1.77"
       fill="#fff"
       opacity="0.5"
       id="rect58" />
    <rect
       x="130.46"
       y="77.03"
       width="3.54"
       height="3.54"
       rx="1.77"
       fill="#fff"
       opacity="0.5"
       id="rect60" />
    <rect
       x="156.99"
       y="77.03"
       width="3.54"
       height="3.54"
       rx="1.77"
       fill="#fff"
       opacity="0.5"
       id="rect62" />
    <rect
       x="183.53"
       y="77.03"
       width="3.54"
       height="3.54"
       rx="1.77"
       fill="#fff"
       opacity="0.5"
       id="rect64" />
    <rect
       x="236.59"
       y="77.03"
       width="3.54"
       height="3.54"
       rx="1.77"
       fill="#fff"
       opacity="0.5"
       id="rect66" />
    <rect
       x="77.4"
       y="130.1"
       width="3.54"
       height="3.54"
       rx="1.77"
       fill="#fff"
       opacity="0.5"
       id="rect68" />
    <rect
       x="103.93"
       y="130.1"
       width="3.54"
       height="3.54"
       rx="1.77"
       fill="#fff"
       opacity="0.5"
       id="rect70" />
    <rect
       x="130.46"
       y="130.1"
       width="3.54"
       height="3.54"
       rx="1.77"
       fill="#fff"
       opacity="0.5"
       id="rect72" />
    <rect
       x="156.99"
       y="130.1"
       width="3.54"
       height="3.54"
       rx="1.77"
       fill="#fff"
       opacity="0.5"
       id="rect74" />
    <rect
       x="183.53"
       y="130.1"
       width="3.54"
       height="3.54"
       rx="1.77"
       fill="#fff"
       opacity="0.5"
       id="rect76" />
    <rect
       x="236.59"
       y="130.1"
       width="3.54"
       height="3.54"
       rx="1.77"
       fill="#fff"
       opacity="0.5"
       id="rect78" />
    <rect
       x="77.4"
       y="183.16"
       width="3.54"
       height="3.54"
       rx="1.77"
       fill="#fff"
       opacity="0.5"
       id="rect80" />
    <rect
       x="103.93"
       y="183.16"
       width="3.54"
       height="3.54"
       rx="1.77"
       fill="#fff"
       opacity="0.5"
       id="rect82" />
    <rect
       x="130.46"
       y="183.16"
       width="3.54"
       height="3.54"
       rx="1.77"
       fill="#fff"
       opacity="0.5"
       id="rect84" />
    <rect
       x="156.99"
       y="183.16"
       width="3.54"
       height="3.54"
       rx="1.77"
       fill="#fff"
       opacity="0.5"
       id="rect86" />
    <rect
       x="183.53"
       y="183.16"
       width="3.54"
       height="3.54"
       rx="1.77"
       fill="#fff"
       opacity="0.5"
       id="rect88" />
    <rect
       x="236.59"
       y="183.16"
       width="3.54"
       height="3.54"
       rx="1.77"
       fill="#fff"
       opacity="0.5"
       id="rect90" />
    <rect
       x="103.93"
       y="209.7"
       width="3.54"
       height="3.54"
       rx="1.77"
       fill="#fff"
       opacity="0.5"
       id="rect92" />
    <rect
       x="130.46"
       y="209.7"
       width="3.54"
       height="3.54"
       rx="1.77"
       fill="#fff"
       opacity="0.5"
       id="rect94" />
    <rect
       x="156.99"
       y="209.7"
       width="3.54"
       height="3.54"
       rx="1.77"
       fill="#fff"
       opacity="0.5"
       id="rect96" />
    <rect
       x="77.4"
       y="236.23"
       width="3.54"
       height="3.54"
       rx="1.77"
       fill="#fff"
       opacity="0.5"
       id="rect98" />
    <rect
       x="130.46"
       y="236.23"
       width="3.54"
       height="3.54"
       rx="1.77"
       fill="#fff"
       opacity="0.5"
       id="rect100" />
    <rect
       x="183.53"
       y="236.23"
       width="3.54"
       height="3.54"
       rx="1.77"
       fill="#fff"
       opacity="0.5"
       id="rect102" />
    <rect
       x="210.06"
       y="236.23"
       width="3.54"
       height="3.54"
       rx="1.77"
       fill="#fff"
       opacity="0.5"
       id="rect104" />
    <rect
       x="50.86"
       y="236.23"
       width="3.54"
       height="3.54"
       rx="1.77"
       fill="#fff"
       opacity="0.5"
       id="rect106" />
  </g>
  <g
     id="b98b6670-d2e4-4731-aaee-8b10fe305b33"
     data-name="Calque 1">
    <path
       d="M 118.09,130.81062 V 76.877046 a 7.84,7.821666 0 0 1 7.85,-7.821666 h 12.4 a 7.82,7.8017128 0 0 1 7.8,7.612157 v 31.526103 l 50.6,-41.043794 H 183.56 V 62.341118 C 183.48,44.65258 170.91,32.261624 153.1,32.032162 c -13.9,-0.159626 -27.72,-0.07981 -41.63,0 -18.27,0.159626 -30.3,12.311143 -30.38,30.698044 q -0.12,31.785494 -0.08,63.650804 0,17.26952 0,34.55899 z"
       id="path109"
       inkscape:connector-curvature="0"
       style="fill:#ffffff;stroke-width:1" />
    <path
       d="M146.05,187.86a7.84,7.84,0,0,1-7.84,7.84h-12.4A7.75,7.75,0,0,1,118.4,190V156.11L67.79,197.25H81c0,1.79,0,3.58,0,5.36.07,17.65,12.26,29.83,29.83,30,14.06.08,28.11.08,42.25,0,17.8-.16,30.3-12.49,30.38-30.3q.09-49.56,0-99.11l-37.42,30.64Z"
       fill="#fff"
       id="path111" />
  </g>
</svg>
