<?xml version="1.0" encoding="UTF-8"?>
<svg width="40" height="40" version="1.1" viewBox="0 0 10.583 10.583" xmlns="http://www.w3.org/2000/svg"><path id="shadow" d="m0.49609 9.4456c0 1.0508 9.6384 1.0522 9.6384 0s-9.6384-1.0508-9.6384 0z" fill="#b2b2b2"/><g><ellipse cx="7.3583" cy="4.9309" rx="1.2946" ry="1.365"/><ellipse cx="5.9071" cy="2.2854" rx="1.0043" ry=".98497"/><ellipse cx="3.8138" cy="2.1242" rx=".6036" ry=".58727"/><ellipse cx="4.7341" cy=".7652" rx=".53416" ry=".56603"/><ellipse cx="2.4948" cy="6.5488" rx=".50284" ry=".52844"/><ellipse cx="6.6263" cy="7.5241" rx=".62086" ry=".67018"/><ellipse cx="5.4629" cy="9.222" rx=".48502" ry=".49596"/></g><g fill="#0f0"><ellipse cx="2.5057" cy="6.571" rx=".30485" ry=".27814"/><ellipse cx="6.6024" cy="7.4889" rx=".36332" ry=".3909"/><ellipse cx="7.375" cy="4.9957" rx=".83939" ry=".91708"/><ellipse cx="5.9133" cy="2.3022" rx=".63059" ry=".58717"/><ellipse cx="3.8545" cy="2.1268" rx=".32573" ry=".34496"/><ellipse cx="4.7607" cy=".76535" rx=".30485" ry=".2865"/></g><g><ellipse cx="4.8471" cy="5.1217" rx="2.1131" ry="2.0103"/><ellipse cx="4.8234" cy="5.0876" rx="1.6328" ry="1.5676" fill="#0f0"/><ellipse cx="4.3849" cy="7.7494" rx="1.2946" ry="1.3207"/><ellipse cx="4.3807" cy="7.7102" rx=".92709" ry=".91291" fill="#0f0"/><ellipse cx="5.4498" cy="9.2198" rx=".27145" ry=".28441" fill="#0f0"/></g></svg>
