<?xml version="1.0" encoding="UTF-8" standalone="no"?>
<!-- Generator: Adobe Illustrator 19.0.0, SVG Export Plug-In . SVG Version: 6.00 Build 0)  -->

<svg
   xmlns:dc="http://purl.org/dc/elements/1.1/"
   xmlns:cc="http://creativecommons.org/ns#"
   xmlns:rdf="http://www.w3.org/1999/02/22-rdf-syntax-ns#"
   xmlns:svg="http://www.w3.org/2000/svg"
   xmlns="http://www.w3.org/2000/svg"
   xmlns:sodipodi="http://sodipodi.sourceforge.net/DTD/sodipodi-0.dtd"
   xmlns:inkscape="http://www.inkscape.org/namespaces/inkscape"
   version="1.1"
   id="Layer_1"
   x="0px"
   y="0px"
   viewBox="0 0 200 200"
   xml:space="preserve"
   sodipodi:docname="hourglass.svg"
   width="200"
   height="200"
   inkscape:export-filename="D:\angular7\blueprintnotincluded\src\assets\images\ui\manual\hourglass.png"
   inkscape:export-xdpi="96"
   inkscape:export-ydpi="96"
   inkscape:version="0.92.3 (2405546, 2018-03-11)"><metadata
   id="metadata49"><rdf:RDF><cc:Work
       rdf:about=""><dc:format>image/svg+xml</dc:format><dc:type
         rdf:resource="http://purl.org/dc/dcmitype/StillImage" /><dc:title></dc:title></cc:Work></rdf:RDF></metadata><defs
   id="defs47">

	

	

		
	
		
	</defs><sodipodi:namedview
   pagecolor="#ffffff"
   bordercolor="#666666"
   borderopacity="1"
   objecttolerance="10"
   gridtolerance="10"
   guidetolerance="10"
   inkscape:pageopacity="0"
   inkscape:pageshadow="2"
   inkscape:window-width="1920"
   inkscape:window-height="1017"
   id="namedview45"
   showgrid="false"
   inkscape:zoom="0.921875"
   inkscape:cx="-13.671568"
   inkscape:cy="-180.38556"
   inkscape:window-x="1912"
   inkscape:window-y="-8"
   inkscape:window-maximized="1"
   inkscape:current-layer="Layer_1" />

















<rect
   style="opacity:1;fill:#007aff;fill-opacity:1;fill-rule:nonzero;stroke:none;stroke-width:0.5;stroke-linecap:round;stroke-linejoin:miter;stroke-miterlimit:4;stroke-dasharray:none;stroke-opacity:1"
   id="rect4559"
   width="200"
   height="200"
   x="0"
   y="0" /><g
   id="g4560"><path
     style="fill:#ffffff;fill-opacity:1;stroke-width:1"
     inkscape:connector-curvature="0"
     id="path2"
     d="m 114.92482,91.943362 9.4524,-6.301676 c 4.67101,-3.116287 7.46253,-8.333053 7.46253,-13.943689 V 60.199365 c 4.10945,-1.464865 7.0755,-5.354975 7.0755,-9.96372 v -7.075501 c 0,-1.955432 -1.58232,-3.53775 -3.53775,-3.53775 H 64.622496 c -1.955432,0 -3.53775,1.582318 -3.53775,3.53775 v 7.075501 c 0,4.608745 2.96605,8.498855 7.0755,9.96372 v 11.498632 c 0,5.610636 2.791521,10.827402 7.462531,13.943689 l 9.452397,6.301676 c 2.701662,1.80331 4.311574,4.816058 4.311574,8.056637 0,3.240581 -1.609912,6.253331 -4.311574,8.056641 l -9.452397,6.30167 c -4.67101,3.11629 -7.462531,8.33306 -7.462531,13.94369 v 11.49863 c -4.10945,1.46487 -7.0755,5.35498 -7.0755,9.96372 v 7.0755 c 0,1.95544 1.582318,3.53775 3.53775,3.53775 H 135.3775 c 1.95543,0 3.53775,-1.58231 3.53775,-3.53775 v -7.0755 c 0,-4.60874 -2.96605,-8.49885 -7.0755,-9.96372 V 128.302 c 0,-5.61063 -2.79152,-10.8274 -7.46253,-13.94369 l -9.4524,-6.30167 c -2.70166,-1.80331 -4.31157,-4.81606 -4.31157,-8.056641 0,-3.240579 1.60991,-6.253327 4.31157,-8.056637 z m -11.38707,8.056637 c 0,5.610641 2.79152,10.827401 7.46253,13.943691 l 9.4524,6.30167 c 2.70166,1.80331 4.31157,4.81606 4.31157,8.05664 v 10.8491 H 75.235747 V 128.302 c 0,-3.24058 1.609912,-6.25333 4.311574,-8.05664 l 9.452397,-6.30167 c 4.67101,-3.11629 7.462531,-8.33305 7.462531,-13.943691 0,-5.610636 -2.791521,-10.827403 -7.462531,-13.943689 L 79.547321,79.754633 C 76.845659,77.951324 75.235747,74.938576 75.235747,71.697997 V 60.848896 h 49.528503 v 10.849101 c 0,3.240579 -1.60991,6.253327 -4.31157,8.056636 l -9.4524,6.301677 c -4.67101,3.116286 -7.46253,8.333053 -7.46253,13.943689 z" /><path
     style="fill:#ffffff;fill-opacity:1;stroke-width:1"
     inkscape:connector-curvature="0"
     id="path8"
     d="m 102.12123,118.39347 c -1.25755,-0.93963 -2.984914,-0.93963 -4.242466,0 l -15.567516,11.67741 v 2.00472 h 35.377502 v -2.00472 z" /></g></svg>