<?xml version="1.0" encoding="UTF-8" standalone="no"?>
<!-- Created with Inkscape (http://www.inkscape.org/) -->

<svg
   xmlns:dc="http://purl.org/dc/elements/1.1/"
   xmlns:cc="http://creativecommons.org/ns#"
   xmlns:rdf="http://www.w3.org/1999/02/22-rdf-syntax-ns#"
   xmlns:svg="http://www.w3.org/2000/svg"
   xmlns="http://www.w3.org/2000/svg"
   xmlns:sodipodi="http://sodipodi.sourceforge.net/DTD/sodipodi-0.dtd"
   xmlns:inkscape="http://www.inkscape.org/namespaces/inkscape"
   width="40"
   height="40"
   viewBox="0 0 10.583333 10.583334"
   version="1.1"
   id="svg8"
   inkscape:version="0.92.3 (2405546, 2018-03-11)"
   sodipodi:docname="liquid_icon.svg">
  <defs
     id="defs2" />
  <sodipodi:namedview
     id="base"
     pagecolor="#ffffff"
     bordercolor="#666666"
     borderopacity="1.0"
     inkscape:pageopacity="0.0"
     inkscape:pageshadow="2"
     inkscape:zoom="11.2"
     inkscape:cx="45.469129"
     inkscape:cy="28.383516"
     inkscape:document-units="mm"
     inkscape:current-layer="layer1"
     showgrid="false"
     units="px"
     inkscape:window-width="1920"
     inkscape:window-height="1017"
     inkscape:window-x="1912"
     inkscape:window-y="-8"
     inkscape:window-maximized="1" />
  <metadata
     id="metadata5">
    <rdf:RDF>
      <cc:Work
         rdf:about="">
        <dc:format>image/svg+xml</dc:format>
        <dc:type
           rdf:resource="http://purl.org/dc/dcmitype/StillImage" />
        <dc:title></dc:title>
      </cc:Work>
    </rdf:RDF>
  </metadata>
  <g
     inkscape:label="Calque 1"
     inkscape:groupmode="layer"
     id="layer1"
     transform="translate(0,-286.41665)">
    <path
       style="fill:#b2b2b2;fill-opacity:0.99576271;stroke:none;stroke-width:0.26458332px;stroke-linecap:butt;stroke-linejoin:miter;stroke-opacity:1"
       d="m 0.49609374,295.86228 c 0,1.05081 9.63839326,1.05216 9.63839326,0 0,-1.05216 -9.63839326,-1.05081 -9.63839326,0 z"
       id="shadow"
       inkscape:connector-curvature="0"
       sodipodi:nodetypes="zzz" />
    <path
       style="fill:#000000;fill-opacity:0.98728812;stroke:none;stroke-width:0.26458332px;stroke-linecap:butt;stroke-linejoin:miter;stroke-opacity:0.25423763"
       d="m 5.0735688,289.77381 c 0,0 -1.7657493,2.07196 -1.9788887,3.28105 -0.2531238,1.6838 0.8358677,2.96017 2.1566586,2.80284 0.412572,-0.0491 1.1889998,-0.41007 1.4632246,-0.91583 0.4636981,-0.85522 0.3278931,-1.76296 0.027919,-2.70691 -0.4323631,-1.36057 -1.6689171,-2.46115 -1.6689171,-2.46115 z"
       id="drop_1"
       inkscape:connector-curvature="0"
       sodipodi:nodetypes="ccssscc"
       inkscape:label="#drop_1" />
    <path
       style="fill:#000000;fill-opacity:0.98728812;stroke:none;stroke-width:0.26458332px;stroke-linecap:butt;stroke-linejoin:miter;stroke-opacity:1"
       d="m 7.4083772,287.34487 c 0,0 -1.1907495,1.989 -1.0941347,3.04019 0.075785,0.82455 0.6476819,1.66372 1.3697564,1.67879 0.7329463,0.0153 1.1682799,-0.65527 1.2597449,-1.26345 0.2246302,-1.49365 -1.5353666,-3.45553 -1.5353666,-3.45553 z"
       id="drop_2"
       inkscape:connector-curvature="0"
       sodipodi:nodetypes="csssc" />
    <path
       style="fill:#000000;fill-opacity:0.98728812;stroke:none;stroke-width:0.26458332px;stroke-linecap:butt;stroke-linejoin:miter;stroke-opacity:1"
       d="m 3.8742559,286.61745 c 0,0 -0.3407116,0.34693 -0.6377998,0.85734 -0.289092,0.49667 -0.4877486,1.16246 -0.4725053,1.62313 0.020957,0.63334 0.5112848,1.28953 1.1339286,1.26976 0.6848918,-0.0217 0.9159269,-0.97502 0.9508464,-1.6064 0.022233,-0.40199 -0.073019,-0.84476 -0.2504754,-1.19483 -0.2876438,-0.56744 -0.7239945,-0.949 -0.7239945,-0.949 z"
       id="drop_3"
       inkscape:connector-curvature="0"
       sodipodi:nodetypes="csssssc" />
    <path
       style="fill:#00ff00;fill-opacity:1;stroke:none;stroke-width:0.26458332px;stroke-linecap:butt;stroke-linejoin:miter;stroke-opacity:1"
       d="m 5.0697689,290.48529 c 0,0 -1.5043003,1.81057 -1.394813,2.99008 0.091921,0.99026 0.6689587,1.94548 1.4699824,1.91264 0.7771621,-0.0319 1.3343321,-0.77242 1.4198695,-1.58691 0.1807251,-1.72087 -1.4950389,-3.31581 -1.4950389,-3.31581 z"
       id="tint_1"
       inkscape:connector-curvature="0"
       sodipodi:nodetypes="csssc"
       inkscape:label="#tint_1" />
    <path
       style="fill:#00ff00;fill-opacity:1;stroke:none;stroke-width:0.26458332px;stroke-linecap:butt;stroke-linejoin:miter;stroke-opacity:1"
       d="m 7.4414062,287.89312 c 0,0 -0.9224112,1.65419 -0.7886446,2.47009 0.08702,0.53076 0.5024256,1.33027 1.040274,1.32853 0.5158384,-0.002 0.8004534,-0.68858 0.8593922,-1.27293 0.088749,-0.8799 -1.1110216,-2.52569 -1.1110216,-2.52569 z"
       id="tint_2"
       inkscape:connector-curvature="0"
       sodipodi:nodetypes="csssc" />
    <path
       style="fill:#00ff00;fill-opacity:1;stroke:none;stroke-width:0.26458332px;stroke-linecap:butt;stroke-linejoin:miter;stroke-opacity:1"
       d="m 3.8801618,287.04267 c 0,0 -0.8288072,1.11884 -0.8150111,1.72452 0.00955,0.41909 0.2955584,1.13451 0.714611,1.14574 0.4027649,0.0108 0.7349255,-0.70929 0.685082,-1.22252 -0.023507,-0.24205 -0.06028,-0.53715 -0.1571539,-0.7988 -0.171359,-0.46282 -0.427528,-0.84894 -0.427528,-0.84894 z"
       id="path838"
       inkscape:connector-curvature="0"
       sodipodi:nodetypes="cssssc" />
  </g>
</svg>
