<?xml version="1.0" encoding="UTF-8" standalone="no"?>
<!-- Created with Inkscape (http://www.inkscape.org/) -->

<svg
   xmlns:dc="http://purl.org/dc/elements/1.1/"
   xmlns:cc="http://creativecommons.org/ns#"
   xmlns:rdf="http://www.w3.org/1999/02/22-rdf-syntax-ns#"
   xmlns:svg="http://www.w3.org/2000/svg"
   xmlns="http://www.w3.org/2000/svg"
   xmlns:sodipodi="http://sodipodi.sourceforge.net/DTD/sodipodi-0.dtd"
   xmlns:inkscape="http://www.inkscape.org/namespaces/inkscape"
   width="384"
   height="384"
   viewBox="0 0 101.6 101.6"
   version="1.1"
   id="svg8"
   inkscape:version="0.92.4 (5da689c313, 2019-01-14)"
   sodipodi:docname="tileable_liquid.svg"
   inkscape:export-filename="D:\angular7\blueprintnotincluded\src\assets\images\ui\manual\gas_tile.png"
   inkscape:export-xdpi="96"
   inkscape:export-ydpi="96">
  <defs
     id="defs2" />
  <sodipodi:namedview
     id="base"
     pagecolor="#370000"
     bordercolor="#666666"
     borderopacity="1.0"
     inkscape:pageopacity="0"
     inkscape:pageshadow="2"
     inkscape:zoom="1.4142136"
     inkscape:cx="257.29426"
     inkscape:cy="121.92118"
     inkscape:document-units="px"
     inkscape:current-layer="layer1"
     showgrid="true"
     units="px"
     inkscape:window-width="1920"
     inkscape:window-height="1017"
     inkscape:window-x="1912"
     inkscape:window-y="-8"
     inkscape:window-maximized="1"
     inkscape:snap-smooth-nodes="true"
     inkscape:snap-grids="true"
     inkscape:snap-global="true"
     inkscape:object-paths="false"
     inkscape:snap-intersection-paths="true">
    <inkscape:grid
       type="xygrid"
       id="grid4520" />
  </sodipodi:namedview>
  <metadata
     id="metadata5">
    <rdf:RDF>
      <cc:Work
         rdf:about="">
        <dc:format>image/svg+xml</dc:format>
        <dc:type
           rdf:resource="http://purl.org/dc/dcmitype/StillImage" />
        <dc:title></dc:title>
      </cc:Work>
    </rdf:RDF>
  </metadata>
  <g
     inkscape:label="Calque 1"
     inkscape:groupmode="layer"
     id="layer1"
     transform="translate(0,-195.39999)">
    <path
       inkscape:connector-curvature="0"
       style="opacity:1;fill:#ffffff;fill-opacity:1;fill-rule:nonzero;stroke:none;stroke-width:1.32291663;stroke-linecap:round;stroke-linejoin:round;stroke-miterlimit:4;stroke-dasharray:none;stroke-opacity:1"
       d="m 33.866667,229.26665 h 33.866667 v 33.86667 H 33.866667 Z"
       id="rect4572-1-5"
       inkscape:export-xdpi="96"
       inkscape:export-ydpi="96" />
    <path
       style="color:#000000;font-style:normal;font-variant:normal;font-weight:normal;font-stretch:normal;font-size:medium;line-height:normal;font-family:sans-serif;font-variant-ligatures:normal;font-variant-position:normal;font-variant-caps:normal;font-variant-numeric:normal;font-variant-alternates:normal;font-feature-settings:normal;text-indent:0;text-align:start;text-decoration:none;text-decoration-line:none;text-decoration-style:solid;text-decoration-color:#000000;letter-spacing:normal;word-spacing:normal;text-transform:none;writing-mode:lr-tb;direction:ltr;text-orientation:mixed;dominant-baseline:auto;baseline-shift:baseline;text-anchor:start;white-space:normal;shape-padding:0;clip-rule:nonzero;display:inline;overflow:visible;visibility:visible;opacity:1;isolation:auto;mix-blend-mode:normal;color-interpolation:sRGB;color-interpolation-filters:linearRGB;solid-color:#000000;solid-opacity:1;vector-effect:none;fill:#000000;fill-opacity:0.21568627;fill-rule:nonzero;stroke:none;stroke-width:1.32291663;stroke-linecap:round;stroke-linejoin:round;stroke-miterlimit:4;stroke-dasharray:none;stroke-dashoffset:0;stroke-opacity:1;color-rendering:auto;image-rendering:auto;shape-rendering:auto;text-rendering:auto;enable-background:accumulate"
       d="m 25.29014,222.37955 c -3.6e-4,0 -7.17e-4,-1e-5 -0.0011,-1e-5 -0.664234,0 -1.218256,0.33848 -1.591797,0.7383 -0.373539,0.39981 -0.627428,0.86167 -0.874998,1.28125 -0.247571,0.41957 -0.486132,0.79588 -0.726565,1.0332 -0.240429,0.23732 -0.438324,0.346 -0.777343,0.34961 -0.362987,0.004 -0.495427,-0.0889 -0.687498,-0.31641 -0.192072,-0.22755 -0.375881,-0.62174 -0.56836,-1.07032 -0.192479,-0.44858 -0.393811,-0.94923 -0.755859,-1.39452 -0.362048,-0.4453 -0.958371,-0.80861 -1.675783,-0.80861 -0.713582,0 -1.315485,0.32157 -1.75586,0.72462 -0.440372,0.40305 -0.760947,0.88242 -1.054685,1.32032 -0.293743,0.43789 -0.564142,0.8346 -0.806643,1.07031 -0.242498,0.23571 -0.387556,0.30518 -0.623046,0.28711 -0.147778,-0.0113 -0.281416,-0.0883 -0.492186,-0.35156 -0.210772,-0.26333 -0.439364,-0.67772 -0.691406,-1.12696 -0.252045,-0.44924 -0.529627,-0.93601 -0.921875,-1.35742 -0.39225,-0.42142 -0.937241,-0.78246 -1.6132834,-0.84766 a 0.66152444,0.66152444 0 0 0 -0.06641,-0.004 l 7.9e-6,1e-4 v 0 a 0.66152444,0.66152444 0 0 0 -0.06055,1.32031 c 0.3036358,0.0293 0.5212925,0.16285 0.7714855,0.43163 0.25019,0.26879 0.49499,0.66988 0.73828,1.10353 0.243289,0.43364 0.482965,0.8974 0.810548,1.30664 0.327583,0.40923 0.802055,0.79784 1.425779,0.8457 0.667427,0.0512 1.244108,-0.26899 1.644533,-0.6582 0.400423,-0.38921 0.693997,-0.85323 0.982422,-1.28322 0.288422,-0.42996 0.569349,-0.82551 0.849609,-1.08202 0.28026,-0.25651 0.51853,-0.37695 0.86328,-0.37695 0.340923,0 0.462036,0.0887 0.65039,0.32031 0.188357,0.23167 0.370459,0.63188 0.564455,1.08399 0.193995,0.45211 0.400917,0.95675 0.77539,1.40039 0.374473,0.44364 0.983311,0.79481 1.710939,0.78711 0.698206,-0.007 1.285377,-0.32973 1.693357,-0.73243 0.407982,-0.40269 0.682845,-0.87445 0.935548,-1.30274 0.252701,-0.42827 0.483849,-0.81412 0.703125,-1.04882 0.219276,-0.2347 0.363196,-0.31836 0.624999,-0.31836 4.18e-4,0 8.36e-4,0 0.0013,0"
       id="path4686"
       inkscape:connector-curvature="0" />
    <path
       style="color:#000000;font-style:normal;font-variant:normal;font-weight:normal;font-stretch:normal;font-size:medium;line-height:normal;font-family:sans-serif;font-variant-ligatures:normal;font-variant-position:normal;font-variant-caps:normal;font-variant-numeric:normal;font-variant-alternates:normal;font-feature-settings:normal;text-indent:0;text-align:start;text-decoration:none;text-decoration-line:none;text-decoration-style:solid;text-decoration-color:#000000;letter-spacing:normal;word-spacing:normal;text-transform:none;writing-mode:lr-tb;direction:ltr;text-orientation:mixed;dominant-baseline:auto;baseline-shift:baseline;text-anchor:start;white-space:normal;shape-padding:0;clip-rule:nonzero;display:inline;overflow:visible;visibility:visible;opacity:1;isolation:auto;mix-blend-mode:normal;color-interpolation:sRGB;color-interpolation-filters:linearRGB;solid-color:#000000;solid-opacity:1;vector-effect:none;fill:#000000;fill-opacity:0.21568627;fill-rule:nonzero;stroke:none;stroke-width:1.32291663;stroke-linecap:round;stroke-linejoin:round;stroke-miterlimit:4;stroke-dasharray:none;stroke-dashoffset:0;stroke-opacity:1;color-rendering:auto;image-rendering:auto;shape-rendering:auto;text-rendering:auto;enable-background:accumulate"
       d="m -8.5762483,223.70377 c 0.277392,2.3e-4 0.407331,0.0772 0.598358,0.2793 0.191317,0.20238 0.390207,0.54406 0.599612,0.93555 0.209399,0.39148 0.428995,0.83111 0.76953,1.22265 0.340534,0.39155 0.856977,0.73421 1.492186,0.77344 0.673558,0.0416 1.282102,-0.26769 1.601563,-0.69922 0.31946,-0.43153 0.433938,-0.89856 0.554688,-1.32422 0.120748,-0.42566 0.23721,-0.81426 0.396484,-1.07812 0.159273,-0.26386 0.312846,-0.41435 0.675782,-0.50781 a 0.66152444,0.66152444 0 1 0 -0.328125,-1.28125 c -0.691274,0.17802 -1.190834,0.62565 -1.480468,1.10546 -0.289634,0.47982 -0.418037,0.98063 -0.53711,1.40039 -0.119075,0.41977 -0.238209,0.75324 -0.345704,0.89844 -0.107495,0.14521 -0.118333,0.18682 -0.455078,0.16602 -0.249817,-0.0154 -0.383776,-0.10105 -0.57617,-0.32227 -0.192397,-0.22121 -0.388567,-0.57835 -0.601565,-0.97656 -0.212997,-0.39821 -0.442566,-0.8396 -0.804688,-1.22266 -0.361921,-0.38285 -0.912148,-0.69302 -1.55947,-0.69336"
       id="path4524-2-4"
       inkscape:connector-curvature="0" />
    <path
       style="color:#000000;font-style:normal;font-variant:normal;font-weight:normal;font-stretch:normal;font-size:medium;line-height:normal;font-family:sans-serif;font-variant-ligatures:normal;font-variant-position:normal;font-variant-caps:normal;font-variant-numeric:normal;font-variant-alternates:normal;font-feature-settings:normal;text-indent:0;text-align:start;text-decoration:none;text-decoration-line:none;text-decoration-style:solid;text-decoration-color:#000000;letter-spacing:normal;word-spacing:normal;text-transform:none;writing-mode:lr-tb;direction:ltr;text-orientation:mixed;dominant-baseline:auto;baseline-shift:baseline;text-anchor:start;white-space:normal;shape-padding:0;clip-rule:nonzero;display:inline;overflow:visible;visibility:visible;opacity:1;isolation:auto;mix-blend-mode:normal;color-interpolation:sRGB;color-interpolation-filters:linearRGB;solid-color:#000000;solid-opacity:1;vector-effect:none;fill:#000000;fill-opacity:0.21568627;fill-rule:nonzero;stroke:none;stroke-width:1.32291663;stroke-linecap:round;stroke-linejoin:round;stroke-miterlimit:4;stroke-dasharray:none;stroke-dashoffset:0;stroke-opacity:1;color-rendering:auto;image-rendering:auto;shape-rendering:auto;text-rendering:auto;enable-background:accumulate"
       d="m 25.289974,206.50445 c -0.713345,1.7e-4 -1.315058,0.32166 -1.75532,0.72461 -0.440375,0.40306 -0.760946,0.88437 -1.054687,1.32227 -0.29374,0.4379 -0.564142,0.8346 -0.80664,1.07031 -0.242502,0.23571 -0.387559,0.30518 -0.623049,0.28711 -0.147778,-0.0113 -0.281414,-0.0902 -0.492186,-0.35351 -0.210772,-0.26332 -0.439362,-0.67771 -0.691407,-1.12696 -0.252044,-0.44924 -0.529624,-0.93601 -0.921874,-1.35742 -0.39225,-0.42141 -0.937241,-0.78049 -1.613282,-0.8457 a 0.66152444,0.66152444 0 0 0 -0.06641,-0.004 l 7e-6,9e-5 v 0 a 0.66152444,0.66152444 0 0 0 -0.06055,1.32031 c 0.303634,0.0293 0.521294,0.16285 0.771484,0.43164 0.25019,0.2688 0.493038,0.66987 0.736328,1.10352 0.243292,0.43365 0.484918,0.8974 0.812501,1.30664 0.327583,0.40924 0.800102,0.79589 1.423829,0.84375 0.667424,0.0512 1.24606,-0.26899 1.646483,-0.6582 0.400423,-0.38921 0.693997,-0.85128 0.982422,-1.28125 0.288422,-0.42997 0.569349,-0.82553 0.849609,-1.08203 0.280106,-0.25637 0.518268,-0.37683 0.862719,-0.37696"
       id="path4648"
       inkscape:connector-curvature="0" />
    <path
       style="color:#000000;font-style:normal;font-variant:normal;font-weight:normal;font-stretch:normal;font-size:medium;line-height:normal;font-family:sans-serif;font-variant-ligatures:normal;font-variant-position:normal;font-variant-caps:normal;font-variant-numeric:normal;font-variant-alternates:normal;font-feature-settings:normal;text-indent:0;text-align:start;text-decoration:none;text-decoration-line:none;text-decoration-style:solid;text-decoration-color:#000000;letter-spacing:normal;word-spacing:normal;text-transform:none;writing-mode:lr-tb;direction:ltr;text-orientation:mixed;dominant-baseline:auto;baseline-shift:baseline;text-anchor:start;white-space:normal;shape-padding:0;clip-rule:nonzero;display:inline;overflow:visible;visibility:visible;opacity:1;isolation:auto;mix-blend-mode:normal;color-interpolation:sRGB;color-interpolation-filters:linearRGB;solid-color:#000000;solid-opacity:1;vector-effect:none;fill:#000000;fill-opacity:0.21568627;fill-rule:nonzero;stroke:none;stroke-width:1.32291663;stroke-linecap:round;stroke-linejoin:round;stroke-miterlimit:4;stroke-dasharray:none;stroke-dashoffset:0;stroke-opacity:1;color-rendering:auto;image-rendering:auto;shape-rendering:auto;text-rendering:auto;enable-background:accumulate"
       d="m -8.576733,207.82877 c 1.878e-4,0 3.757e-4,0 5.635e-4,0 0.3409209,0 0.462034,0.0867 0.6503908,0.31836 0.1883543,0.23166 0.3704564,0.63188 0.5644515,1.08399 0.1939952,0.45211 0.3989652,0.95869 0.773438,1.40233 0.3744727,0.44365 0.9852633,0.79287 1.7128913,0.78517 0.6951133,-0.007 1.2767098,-0.32919 1.6660151,-0.73438 0.3893052,-0.40518 0.6359921,-0.87437 0.8671877,-1.29492 0.2311956,-0.42055 0.4470135,-0.79391 0.6660144,-1.02539 0.219001,-0.23148 0.3925438,-0.3377 0.73437489,-0.34766 0.24719491,-0.007 0.36191825,0.0598 0.55468837,0.26172 0.19277277,0.20197 0.40075908,0.54945 0.62109349,0.94531 0.22033442,0.39587 0.45537437,0.83865 0.80468785,1.23047 0.3493135,0.39183 0.8660024,0.736 1.5039075,0.77539 0.6735578,0.0416 1.2801468,-0.26769 1.59961,-0.69922 0.3194606,-0.43152 0.4358905,-0.90052 0.5566383,-1.32617 0.1207506,-0.42566 0.2372096,-0.81231 0.3964835,-1.07617 0.1592765,-0.26386 0.3128459,-0.4163 0.6757828,-0.50976 a 0.6615424,0.6615424 0 1 0 -0.3300783,-1.28125 c -0.6912715,0.17802 -1.1888813,0.6276 -1.4785154,1.10742 -0.2896341,0.4798 -0.4180337,0.97867 -0.5371095,1.39842 -0.1190757,0.41978 -0.2382096,0.7552 -0.3457019,0.90041 -0.1074949,0.1452 -0.1202875,0.1868 -0.4570333,0.16601 -0.2471235,-0.0153 -0.3935942,-0.10704 -0.5976567,-0.33594 -0.2040599,-0.22889 -0.4120568,-0.59206 -0.6347645,-0.99219 -0.2227051,-0.40012 -0.45905475,-0.83829 -0.82031154,-1.21679 -0.36125679,-0.37851 -0.91164038,-0.68856 -1.55078111,-0.66993 -0.69501545,0.0203 -1.26969575,0.35314 -1.65624935,0.76173 -0.3865562,0.40858 -0.6326213,0.87728 -0.8632824,1.29687 -0.2306638,0.41959 -0.4456669,0.7884 -0.6621092,1.01367 -0.2164424,0.22527 -0.3844476,0.32645 -0.7265617,0.33008 -0.3629899,0.004 -0.4954297,-0.0889 -0.6875013,-0.31641 -0.1920716,-0.22754 -0.3778356,-0.62173 -0.570312,-1.07031 -0.1924791,-0.44857 -0.3918585,-0.95119 -0.7539064,-1.39648 -0.3620479,-0.4453 -0.9583711,-0.80861 -1.6757809,-0.80861 -1.799e-4,0 -3.598e-4,0 -5.397e-4,1e-5"
       id="path4524-2-6"
       inkscape:connector-curvature="0" />
    <path
       style="fill:none;stroke:#000000;stroke-width:1.32291663;stroke-linecap:round;stroke-linejoin:round;stroke-miterlimit:4;stroke-dasharray:none;stroke-opacity:1"
       d="m -17.004543,247.58023 c 1.95935,0.18899 2.189505,3.56687 3.732514,3.68526 1.805829,0.13856 2.173237,-3.4022 4.289904,-3.4022 2.1166666,0 1.5136157,3.61429 3.6948437,3.5912 2.074456,-0.022 2.1122813,-3.40242 3.9643646,-3.40242 1.85208337,0 1.73061238,3.10411 3.5006654,3.21342 2.0206076,0.12479 0.9153916,-3.0478 3.0238096,-3.59077"
       id="path4524-2"
       inkscape:connector-curvature="0"
       sodipodi:nodetypes="cszszsc" />
    <path
       inkscape:connector-curvature="0"
       style="opacity:1;fill:#00ff00;fill-opacity:0.43644068;fill-rule:nonzero;stroke:none;stroke-width:1.32291663;stroke-linecap:round;stroke-linejoin:round;stroke-miterlimit:4;stroke-dasharray:none;stroke-opacity:1"
       d="m 0,263.13332 h 33.866667 v 33.86667 H 0 Z"
       id="rect4572-1" />
    <circle
       style="opacity:1;fill:none;fill-opacity:0.21568627;fill-rule:nonzero;stroke:#000000;stroke-width:1.32291663;stroke-linecap:round;stroke-linejoin:round;stroke-miterlimit:4;stroke-dasharray:none;stroke-opacity:1"
       id="path4703"
       cx="63.764603"
       cy="281.125"
       r="7.9375" />
    <path
       style="opacity:1;fill:none;fill-opacity:0.21568627;fill-rule:nonzero;stroke:#000000;stroke-width:5.00000048;stroke-linecap:round;stroke-linejoin:round;stroke-miterlimit:4;stroke-dasharray:none;stroke-opacity:1"
       d="M 221 324 A 20.000077 20.000077 0 0 1 221 324 A 20.000077 20.000077 0 0 1 241.00008 303.99991 "
       id="path4703-7"
       transform="matrix(0.26458333,0,0,0.26458333,0,195.39999)" />
    <circle
       style="opacity:1;fill:none;fill-opacity:0.21568627;fill-rule:nonzero;stroke:#000000;stroke-width:1.32291663;stroke-linecap:round;stroke-linejoin:round;stroke-miterlimit:4;stroke-dasharray:none;stroke-opacity:1"
       id="path4703-8"
       cx="88.635437"
       cy="300.96875"
       r="7.9375" />
    <path
       style="opacity:1;fill:none;fill-opacity:0.21568627;fill-rule:nonzero;stroke:#000000;stroke-width:1.32291675;stroke-linecap:round;stroke-linejoin:round;stroke-miterlimit:4;stroke-dasharray:none;stroke-opacity:1"
       d="m 93.927124,300.96874 a 5.291687,5.291687 0 0 1 -5.291687,5.29168 5.291687,5.291687 0 0 1 -5.291687,-5.29168 5.291687,5.291687 0 0 1 5.291687,-5.29169 5.291687,5.291687 0 0 1 5.291687,5.29169 z"
       id="path4703-7-9"
       inkscape:connector-curvature="0" />
    <path
       inkscape:connector-curvature="0"
       style="opacity:1;fill:#00fb00;fill-opacity:0.21568627;fill-rule:nonzero;stroke:none;stroke-width:1.32291663;stroke-linecap:round;stroke-linejoin:round;stroke-miterlimit:4;stroke-dasharray:none;stroke-opacity:1"
       d="m 78.845831,290.91458 h 9.789586 v 10.05417 h -9.789586 z"
       id="rect4721-8" />
    <path
       inkscape:connector-curvature="0"
       style="opacity:1;fill:#ffffff;fill-opacity:1;fill-rule:nonzero;stroke:none;stroke-width:1.32291663;stroke-linecap:round;stroke-linejoin:round;stroke-miterlimit:4;stroke-dasharray:none;stroke-opacity:1"
       d="m 114.3,240.64374 h 33.86667 v 33.86667 H 114.3 Z"
       id="rect4572-1-55"
       inkscape:export-filename="D:\angular7\blueprintnotincluded\src\assets\images\liquid_tile.png"
       inkscape:export-xdpi="96"
       inkscape:export-ydpi="96" />
    <circle
       style="opacity:1;fill:#ffffff;fill-opacity:1;fill-rule:nonzero;stroke:#c8c8c8;stroke-width:1.32291663;stroke-linecap:round;stroke-linejoin:round;stroke-miterlimit:4;stroke-dasharray:none;stroke-opacity:1"
       id="path4703-2"
       cx="78.052086"
       cy="238.79166"
       r="7.9375" />
    <path
       inkscape:connector-curvature="0"
       style="opacity:1;fill:none;fill-opacity:0.21568627;fill-rule:nonzero;stroke:#c8c8c8;stroke-width:1.32291675;stroke-linecap:round;stroke-linejoin:round;stroke-miterlimit:4;stroke-dasharray:none;stroke-opacity:1"
       d="m 72.760405,238.79163 a 5.291687,5.291687 0 0 1 5.29168,-5.29169"
       id="path4703-7-0" />
    <circle
       style="opacity:1;fill:none;fill-opacity:0.21568627;fill-rule:nonzero;stroke:#000000;stroke-width:0.79375;stroke-linecap:round;stroke-linejoin:round;stroke-miterlimit:4;stroke-dasharray:none;stroke-opacity:1"
       id="path4703-8-6"
       cx="108.06451"
       cy="300.43564"
       r="4.3834028" />
    <path
       style="opacity:1;fill:none;fill-opacity:0.21568627;fill-rule:nonzero;stroke:#000000;stroke-width:3;stroke-linecap:round;stroke-linejoin:round;stroke-miterlimit:4;stroke-dasharray:none;stroke-opacity:1"
       d="M 397.38799 396.9851 A 11.044837 11.044837 0 0 1 397.38799 396.9851 A 11.044837 11.044837 0 0 1 408.43283 385.94026 "
       id="path4703-7-9-6"
       transform="matrix(0.26458333,0,0,0.26458333,0,195.39999)" />
    <circle
       style="opacity:1;fill:#ffffff;fill-opacity:1;fill-rule:nonzero;stroke:#c8c8c8;stroke-width:0.79374999;stroke-linecap:round;stroke-linejoin:round;stroke-miterlimit:4;stroke-dasharray:none;stroke-opacity:1"
       id="path4703-8-6-0"
       cx="93.927086"
       cy="234.40825"
       r="4.3834028" />
    <path
       inkscape:connector-curvature="0"
       style="opacity:1;fill:none;fill-opacity:0.21568627;fill-rule:nonzero;stroke:#c8c8c8;stroke-width:0.79374999;stroke-linecap:round;stroke-linejoin:round;stroke-miterlimit:4;stroke-dasharray:none;stroke-opacity:1"
       d="m 91.004823,234.40821 a 2.9222798,2.9222798 0 0 1 2.92229,-2.92228"
       id="path4703-7-9-6-8" />
    <circle
       style="opacity:1;fill:#ffffff;fill-opacity:1;fill-rule:nonzero;stroke:#c8c8c8;stroke-width:1.32291663;stroke-linecap:round;stroke-linejoin:round;stroke-miterlimit:4;stroke-dasharray:none;stroke-opacity:1"
       id="path4703-8-2"
       cx="93.137306"
       cy="253.34378"
       r="6.752789" />
    <path
       style="opacity:1;fill:none;fill-opacity:0.21568627;fill-rule:nonzero;stroke:#c8c8c8;stroke-width:1.32291675;stroke-linecap:round;stroke-linejoin:round;stroke-miterlimit:4;stroke-dasharray:none;stroke-opacity:1"
       d="m 88.635419,253.34374 a 4.5018764,4.5018764 0 0 1 4.50188,-4.50188"
       id="path4703-7-9-1"
       inkscape:connector-curvature="0" />
  </g>
</svg>
