<?xml version="1.0" encoding="UTF-8"?>
<svg width="40" height="40" version="1.1" viewBox="0 0 40 40" xmlns="http://www.w3.org/2000/svg">
	<path d="m20 3c-9.3882 0-17 7.6117-17 17s7.6118 17 17 17c9.3883 0 17-7.6118 17-17s-7.6118-17-17-17zm12.75 17c0 2.7483-0.884 5.2912-2.3687 7.3766l-17.758-17.758c2.0853-1.4847 4.6282-2.3687 7.3766-2.3687 7.0295 0 12.75 5.7205 12.75 12.75zm-25.5 0c0-2.7483 0.884-5.2912 2.3687-7.3766l17.757 17.756c-2.0839 1.4861-4.6268 2.3701-7.3752 2.3701-7.0295 0-12.75-5.7205-12.75-12.75z"/>
</svg>
